<svg xmlns="http://www.w3.org/2000/svg" version="1.1" xmlns:xlink="http://www.w3.org/1999/xlink" xmlns:svgjs="http://svgjs.dev/svgjs" width="1000" height="154" viewBox="0 0 1000 154"><g transform="matrix(1,0,0,1,-0.6060588919714291,0.04980657378656872)"><svg viewBox="0 0 396 61" data-background-color="#ffffff" preserveAspectRatio="xMidYMid meet" height="154" width="1000" xmlns="http://www.w3.org/2000/svg" xmlns:xlink="http://www.w3.org/1999/xlink"><g id="tight-bounds" transform="matrix(1,0,0,1,0.23999932122069367,-0.019728577928447066)"><svg viewBox="0 0 395.52 61.039457155856915" height="61.039457155856915" width="395.52"><g><svg viewBox="0 0 482.7474251633244 74.5010132872092" height="61.039457155856915" width="395.52"><g transform="matrix(1,0,0,1,87.22742516332441,10.296449737957282)"><svg viewBox="0 0 395.52 53.90811381129464" height="53.90811381129464" width="395.52"><g id="textblocktransform"><svg viewBox="0 0 395.52 53.90811381129464" height="53.90811381129464" width="395.52" id="textblock"><g><svg viewBox="0 0 395.52 53.90811381129464" height="53.90811381129464" width="395.52"><g transform="matrix(1,0,0,1,0,0)"><svg width="395.52" viewBox="4.710000038146973 -37.9900016784668 282.2799987792969 38.480003356933594" height="53.90811381129464" data-palette-color="#00af9f"><path d="M28.34-24.9L28.34-24.9Q28.34-19.31 24.68-16.33 21.02-13.35 14.26-13.35L14.26-13.35 10.55-13.35 10.55 0 4.71 0 4.71-35.69 14.99-35.69Q21.68-35.69 25.01-32.96 28.34-30.22 28.34-24.9ZM10.55-30.81L10.55-18.26 13.65-18.26Q18.14-18.26 20.24-19.82 22.34-21.39 22.34-24.71L22.34-24.71Q22.34-27.78 20.46-29.3 18.58-30.81 14.6-30.81L14.6-30.81 10.55-30.81ZM58.62-17.6L58.62 0 52.85 0 52.85-16.6Q52.85-19.73 51.6-21.26 50.34-22.8 47.6-22.8L47.6-22.8Q43.99-22.8 42.29-20.64 40.6-18.48 40.6-13.4L40.6-13.4 40.6 0 34.86 0 34.86-37.99 40.6-37.99 40.6-28.34Q40.6-26.03 40.31-23.39L40.31-23.39 40.67-23.39Q41.84-25.34 43.93-26.42 46.02-27.49 48.8-27.49L48.8-27.49Q58.62-27.49 58.62-17.6L58.62-17.6ZM90.55-13.55L90.55-13.55Q90.55-6.93 87.15-3.22 83.76 0.49 77.7 0.49L77.7 0.49Q73.92 0.49 71.02-1.22 68.11-2.93 66.55-6.13 64.99-9.33 64.99-13.55L64.99-13.55Q64.99-20.12 68.35-23.8 71.72-27.49 77.85-27.49L77.85-27.49Q83.71-27.49 87.13-23.72 90.55-19.95 90.55-13.55ZM70.89-13.55L70.89-13.55Q70.89-4.2 77.8-4.2L77.8-4.2Q84.64-4.2 84.64-13.55L84.64-13.55Q84.64-22.8 77.75-22.8L77.75-22.8Q74.14-22.8 72.52-20.41 70.89-18.02 70.89-13.55ZM107.19-4.15L107.19-4.15Q109.29-4.15 111.39-4.81L111.39-4.81 111.39-0.49Q110.44-0.07 108.94 0.21 107.44 0.49 105.83 0.49L105.83 0.49Q97.67 0.49 97.67-8.11L97.67-8.11 97.67-22.66 93.99-22.66 93.99-25.2 97.94-27.29 99.89-33.01 103.43-33.01 103.43-27 111.13-27 111.13-22.66 103.43-22.66 103.43-8.2Q103.43-6.13 104.47-5.14 105.51-4.15 107.19-4.15ZM140.74-13.55L140.74-13.55Q140.74-6.93 137.34-3.22 133.95 0.49 127.9 0.49L127.9 0.49Q124.11 0.49 121.21-1.22 118.3-2.93 116.74-6.13 115.18-9.33 115.18-13.55L115.18-13.55Q115.18-20.12 118.54-23.8 121.91-27.49 128.04-27.49L128.04-27.49Q133.9-27.49 137.32-23.72 140.74-19.95 140.74-13.55ZM121.08-13.55L121.08-13.55Q121.08-4.2 127.99-4.2L127.99-4.2Q134.83-4.2 134.83-13.55L134.83-13.55Q134.83-22.8 127.94-22.8L127.94-22.8Q124.33-22.8 122.71-20.41 121.08-18.02 121.08-13.55ZM181.5-9.69L181.5-9.69Q181.5-4.93 178.06-2.22 174.62 0.49 168.56 0.49L168.56 0.49Q162.51 0.49 158.65-1.39L158.65-1.39 158.65-6.91Q161.09-5.76 163.84-5.1 166.59-4.44 168.95-4.44L168.95-4.44Q172.42-4.44 174.07-5.76 175.72-7.08 175.72-9.3L175.72-9.3Q175.72-11.3 174.2-12.7 172.69-14.09 167.95-15.99L167.95-15.99Q163.07-17.97 161.07-20.51 159.07-23.05 159.07-26.61L159.07-26.61Q159.07-31.08 162.24-33.64 165.41-36.21 170.76-36.21L170.76-36.21Q175.89-36.21 180.97-33.96L180.97-33.96 179.11-29.2Q174.35-31.2 170.61-31.2L170.61-31.2Q167.78-31.2 166.32-29.97 164.85-28.74 164.85-26.71L164.85-26.71Q164.85-25.32 165.44-24.33 166.03-23.34 167.37-22.46 168.71-21.58 172.2-20.14L172.2-20.14Q176.13-18.51 177.96-17.09 179.79-15.67 180.65-13.89 181.5-12.11 181.5-9.69ZM197.86-4.15L197.86-4.15Q199.96-4.15 202.06-4.81L202.06-4.81 202.06-0.49Q201.11-0.07 199.6 0.21 198.1 0.49 196.49 0.49L196.49 0.49Q188.34 0.49 188.34-8.11L188.34-8.11 188.34-22.66 184.65-22.66 184.65-25.2 188.61-27.29 190.56-33.01 194.1-33.01 194.1-27 201.79-27 201.79-22.66 194.1-22.66 194.1-8.2Q194.1-6.13 195.14-5.14 196.17-4.15 197.86-4.15ZM231.4-13.55L231.4-13.55Q231.4-6.93 228.01-3.22 224.61 0.49 218.56 0.49L218.56 0.49Q214.77 0.49 211.87-1.22 208.96-2.93 207.4-6.13 205.84-9.33 205.84-13.55L205.84-13.55Q205.84-20.12 209.21-23.8 212.58-27.49 218.71-27.49L218.71-27.49Q224.56-27.49 227.98-23.72 231.4-19.95 231.4-13.55ZM211.75-13.55L211.75-13.55Q211.75-4.2 218.66-4.2L218.66-4.2Q225.49-4.2 225.49-13.55L225.49-13.55Q225.49-22.8 218.61-22.8L218.61-22.8Q214.99-22.8 213.37-20.41 211.75-18.02 211.75-13.55ZM248.88 0.49L248.88 0.49Q242.75 0.49 239.56-3.09 236.38-6.67 236.38-13.35L236.38-13.35Q236.38-20.17 239.71-23.83 243.04-27.49 249.34-27.49L249.34-27.49Q253.62-27.49 257.03-25.9L257.03-25.9 255.3-21.29Q251.66-22.71 249.29-22.71L249.29-22.71Q242.29-22.71 242.29-13.4L242.29-13.4Q242.29-8.86 244.03-6.58 245.78-4.3 249.15-4.3L249.15-4.3Q252.98-4.3 256.4-6.2L256.4-6.2 256.4-1.2Q254.86-0.29 253.11 0.1 251.37 0.49 248.88 0.49ZM268.14-14.26L268.29-14.26 271.53-18.31 279.69-27 286.3-27 275.44-15.41 286.99 0 280.25 0 271.58-11.84 268.43-9.25 268.43 0 262.74 0 262.74-37.99 268.43-37.99 268.43-19.46 268.14-14.26Z" opacity="1" transform="matrix(1,0,0,1,0,0)" fill="#00af9f" class="undefined-text-0" data-fill-palette-color="primary" id="text-0"></path></svg></g></svg></g></svg></g></svg></g><g><svg viewBox="0 0 74.50101328720922 74.5010132872092" height="74.5010132872092" width="74.50101328720922"><g><svg></svg></g><g id="icon-0"><svg viewBox="0 0 74.50101328720922 74.5010132872092" height="74.5010132872092" width="74.50101328720922"><g><path xmlns="http://www.w3.org/2000/svg" d="M22.35 74.501c-12.344 0-22.35-10.007-22.35-22.35v-29.801c0-12.344 10.007-22.35 22.35-22.35h29.801c12.344 0 22.35 10.007 22.35 22.35v29.801c0 12.344-10.007 22.35-22.35 22.35z" fill="#00af9f" fill-rule="nonzero" stroke="none" stroke-width="1" stroke-linecap="butt" stroke-linejoin="miter" stroke-miterlimit="10" stroke-dasharray="" stroke-dashoffset="0" font-family="none" font-weight="none" font-size="none" text-anchor="none" style="mix-blend-mode: normal" data-fill-palette-color="accent"></path></g><g transform="matrix(1,0,0,1,14.899954457146322,14.900202657441842)"><svg viewBox="0 0 44.701104372916575 44.70060797232552" height="44.70060797232552" width="44.701104372916575"><g><svg xmlns="http://www.w3.org/2000/svg" xmlns:xlink="http://www.w3.org/1999/xlink" version="1.1" x="0" y="0" viewBox="4.9670000076293945 5 90.0009994506836 90" enable-background="new 0 0 100 100" xml:space="preserve" height="44.70060797232552" width="44.701104372916575" class="icon-s-0" data-fill-palette-color="quaternary" id="s-0"><g fill="#ffffff" data-fill-palette-color="quaternary"><polygon points="81.588,69.219 76.042,77.733 49.901,5 30.566,58.797 24.486,43.546 4.967,95 17.555,95 45,95 64.794,95 82.249,95    94.968,95  " fill="#ffffff" data-fill-palette-color="quaternary"></polygon></g></svg></g></svg></g></svg></g></svg></g></svg></g><defs></defs></svg><rect width="395.52" height="61.039457155856915" fill="none" stroke="none" visibility="hidden"></rect></g></svg></g></svg>